<?xml version="1.0" standalone="no"?>
<!DOCTYPE svg PUBLIC "-//W3C//DTD SVG 20010904//EN"
 "http://www.w3.org/TR/2001/REC-SVG-20010904/DTD/svg10.dtd">
<svg version="1.0" xmlns="http://www.w3.org/2000/svg"
 width="500.000000pt" height="500.000000pt" viewBox="0 0 500.000000 500.000000"
 preserveAspectRatio="xMidYMid meet">

<g transform="translate(0.000000,500.000000) scale(0.100000,-0.100000)"
fill="#fff" stroke="none">
<path d="M1811 3940 c-66 -10 -181 -66 -240 -117 -138 -118 -195 -319 -196
-698 0 -353 62 -629 212 -930 238 -478 654 -855 1144 -1038 211 -79 263 -91
404 -91 130 -1 130 -1 205 36 87 42 144 89 194 157 68 92 109 247 87 328 -20
75 -21 75 -466 246 -121 46 -233 87 -248 91 -74 18 -142 -33 -207 -155 l-32
-60 -46 27 c-268 154 -531 465 -658 780 -42 104 -91 287 -100 377 l-6 64 64 7
c102 10 162 32 196 70 34 39 38 62 47 261 3 72 10 214 16 316 13 206 10 221
-51 272 -55 47 -208 74 -319 57z"/>
</g>
</svg>
